<svg xmlns:dc="http://purl.org/dc/elements/1.1/" xmlns:cc="http://creativecommons.org/ns#" xmlns:rdf="http://www.w3.org/1999/02/22-rdf-syntax-ns#" xmlns:svg="http://www.w3.org/2000/svg" xmlns="http://www.w3.org/2000/svg" xmlns:sodipodi="http://sodipodi.sourceforge.net/DTD/sodipodi-0.dtd" xmlns:inkscape="http://www.inkscape.org/namespaces/inkscape" width="100" height="100" viewBox="0 0 80 80" version="1.1" id="svg2" inkscape:version="0.48.2 r9819" sodipodi:docname="study.svg">
  <metadata id="metadata10">
    <rdf:RDF>
      <cc:Work rdf:about="">
        <dc:format>image/svg+xml</dc:format>
        <dc:type rdf:resource="http://purl.org/dc/dcmitype/StillImage"/>
        <dc:title/>
      </cc:Work>
    </rdf:RDF>
  </metadata>
  <defs id="defs8"/>
  <sodipodi:namedview pagecolor="#ffffff" bordercolor="#666666" borderopacity="1" objecttolerance="10" gridtolerance="10" guidetolerance="10" inkscape:pageopacity="0" inkscape:pageshadow="2" inkscape:window-width="1600" inkscape:window-height="853" id="namedview6" showgrid="true" inkscape:zoom="2.344059" inkscape:cx="219.18293" inkscape:cy="85.395603" inkscape:window-x="-4" inkscape:window-y="-4" inkscape:window-maximized="1" inkscape:current-layer="svg2" inkscape:snap-grids="false">
    <inkscape:grid type="xygrid" id="grid3807"/>
  </sodipodi:namedview>
  <rect style="fill:#000000;fill-opacity:1;stroke:none" id="rect3709" width="11.221724" height="29.768742" x="43.157673" y="36.59013" transform="matrix(0.97344896,-0.22890417,0.22890417,0.97344896,0,0)" ry="1.7753013" rx="1.1604416"/>
  <rect style="fill:#000000;fill-opacity:1;stroke:none" id="rect3711" width="6.7018633" height="30.236311" x="45.795227" y="-72.903694" transform="matrix(-0.07902677,0.99687249,-0.99687249,-0.07902677,0,0)" ry="3.3509316"/>
  <path style="fill:#000000;stroke:none;stroke-width:0.44083097999999998px;stroke-linecap:butt;stroke-linejoin:miter;stroke-opacity:1" d="m 39.77224,56.363333 28.67777,2.494022 -0.779355,3.116982 -6.390099,-1.090838 0,1.247227 8.104505,1.558282 6.390185,-20.884878 -1.246837,-0.155958 -2.649587,9.195863 -2.026105,0 5.299132,-27.743113 2.493719,0.155957 -2.649589,16.521101 2.96133,1.090837 -7.637066,24.002735 -10.910006,-2.961898 0.779266,-2.026155 -4.675648,-0.467435 -0.311699,12.935809 13.871205,2.338055 0,2.182116 -13.403637,-2.493587 -11.689317,2.337626 0,-2.181677 9.351428,-2.649976 -0.467568,-12.93624 -13.559638,-1.558274 z" id="path3713" inkscape:connector-curvature="0"/>
  <path style="fill:#000000;fill-opacity:1;stroke:none" d="m 3.193364,37.986962 0,5.292804 1.8510348,0 0,34.591215 5.0035782,0 0,-6.999226 27.063868,0 0,6.854614 5.784484,0 0,-34.446603 2.342717,0 0,-5.292804 z" id="rect3715" inkscape:connector-curvature="0" sodipodi:nodetypes="ccccccccccccc"/>
  <rect style="fill:#000000;fill-opacity:1;stroke:none" id="rect3743" width="5.4550052" height="27.275026" x="43.507896" y="-44.722862" transform="matrix(0.31914604,0.94770555,-0.94770555,0.31914604,0,0)" ry="2.1691415"/>
  <rect style="fill:#000000;fill-opacity:1;stroke:none" id="rect3745" width="10.598294" height="2.0261445" x="35.544518" y="22.295937" transform="matrix(0.95266091,0.30403486,-0.30403486,0.95266091,0,0)"/>
  <path style="fill:#000000;fill-opacity:1;stroke:none" d="m 21.363933,11.946138 0,9.616449 -3.646506,1.290799 -0.12908,13.262955 -3.452886,2.323437 9.842339,0 -4.550065,-2.807487 0.645399,-11.681727 1.290799,-0.258159 0,11.617187 3.259266,0 0,-23.363454 -3.259266,0 z" id="rect3747" inkscape:connector-curvature="0"/>
  <path inkscape:connector-curvature="0" id="path3784" d="m 39.77224,56.363333 28.67777,2.494022 -0.779355,3.116982 -6.390099,-1.090838 0,1.247227 8.104505,1.558282 6.390185,-20.884878 -1.246837,-0.155958 -2.649587,9.195863 -2.026105,0 5.299132,-27.743113 2.493719,0.155957 -2.649589,16.521101 2.96133,1.090837 -7.637066,24.002735 -10.910006,-2.961898 0.779266,-2.026155 -4.675648,-0.467435 -0.311699,12.935809 13.871205,2.338055 0,2.182116 -13.403637,-2.493587 -11.689317,2.337626 0,-2.181677 9.351428,-2.649976 -0.467568,-12.93624 -13.559638,-1.558274 z" style="fill:#000000;stroke:none"/>
  <path sodipodi:type="arc" style="fill:#000000;fill-opacity:1;stroke:none" id="path8795" sodipodi:cx="115.38461" sodipodi:cy="31.975866" sodipodi:rx="8.2956257" sodipodi:ry="8.2956257" d="m 107.09477,31.66607 a 8.2956257,8.2956257 0 1 1 -0.006,0.309796" transform="matrix(0.92551749,0,0,0.92551749,-56.57187,-12.187834)" sodipodi:start="3.1789459" sodipodi:end="9.424778" sodipodi:open="true"/>
  <path style="fill:#000000;stroke:none" d="m 65.082956,41.063349 c -2.149321,-0.07541 -3.544494,13.687782 -3.544494,13.687782 l 1.206636,2.714932 3.31825,-3.016591 z" id="path8884" inkscape:connector-curvature="0" transform="scale(0.8,0.8)" sodipodi:nodetypes="ccccc"/>
</svg>